<svg xmlns="http://www.w3.org/2000/svg" xmlns:xlink="http://www.w3.org/1999/xlink" width="40" zoomAndPan="magnify" viewBox="0 0 30 30.000001" height="40" preserveAspectRatio="xMidYMid meet" version="1.0"><defs><clipPath id="b5c2079c28"><path d="M 2.371094 1.886719 L 27.773438 1.886719 L 27.773438 27.289062 L 2.371094 27.289062 Z M 2.371094 1.886719 " clip-rule="nonzero"/></clipPath></defs><path fill="#000000" d="M 16.292969 10.78125 L 16.292969 12.84375 L 18.894531 12.84375 L 18.527344 15.667969 L 16.292969 15.667969 L 16.292969 22.144531 L 13.457031 22.144531 L 13.457031 15.667969 L 11.027344 15.667969 L 11.027344 12.84375 L 13.457031 12.84375 L 13.457031 10.78125 C 13.457031 8.542969 15.265625 7.035156 17.5 7.035156 C 18.484375 7.035156 19.105469 7.183594 19.105469 7.183594 L 19.105469 9.570312 L 17.5 9.570312 C 16.839844 9.570312 16.292969 10.117188 16.292969 10.78125 Z M 16.292969 10.78125 " fill-opacity="1" fill-rule="nonzero"/><g clip-path="url(#b5c2079c28)"><path fill="#000000" d="M 15.074219 27.289062 C 8.074219 27.289062 2.371094 21.597656 2.371094 14.589844 C 2.371094 7.578125 8.074219 1.886719 15.074219 1.886719 C 22.082031 1.886719 27.773438 7.589844 27.773438 14.589844 C 27.773438 21.585938 22.082031 27.289062 15.074219 27.289062 Z M 15.074219 2.582031 C 8.449219 2.582031 3.066406 7.964844 3.066406 14.589844 C 3.066406 21.210938 8.449219 26.59375 15.074219 26.59375 C 21.695312 26.59375 27.078125 21.210938 27.078125 14.589844 C 27.078125 7.964844 21.695312 2.582031 15.074219 2.582031 Z M 15.074219 2.582031 " fill-opacity="1" fill-rule="nonzero"/></g></svg>