<svg xmlns="http://www.w3.org/2000/svg" xmlns:xlink="http://www.w3.org/1999/xlink" width="40" zoomAndPan="magnify" viewBox="0 0 30 30.000001" height="40" preserveAspectRatio="xMidYMid meet" version="1.0"><defs><clipPath id="1ad3982354"><path d="M 3.386719 1.613281 L 28.789062 1.613281 L 28.789062 27 L 3.386719 27 Z M 3.386719 1.613281 " clip-rule="nonzero"/></clipPath><clipPath id="cbf06b6703"><path d="M 4 17 L 25 17 L 25 27.742188 L 4 27.742188 Z M 4 17 " clip-rule="nonzero"/></clipPath></defs><g clip-path="url(#1ad3982354)"><path fill="#000000" d="M 25.625 2.996094 C 24.675781 2.265625 23.621094 1.808594 22.4375 1.664062 C 22.378906 1.65625 22.328125 1.628906 22.273438 1.613281 C 21.871094 1.613281 21.472656 1.613281 21.074219 1.613281 C 20.699219 1.691406 20.320312 1.746094 19.957031 1.847656 C 18.476562 2.269531 17.289062 3.128906 16.394531 4.402344 C 16.269531 4.582031 16.144531 4.652344 15.925781 4.652344 C 12.011719 4.644531 8.101562 4.644531 4.1875 4.644531 C 4.074219 4.644531 3.957031 4.648438 3.839844 4.667969 C 3.566406 4.714844 3.417969 4.882812 3.394531 5.167969 C 3.386719 5.242188 3.390625 5.320312 3.390625 5.394531 C 3.390625 12.375 3.390625 19.351562 3.390625 26.328125 C 3.390625 26.417969 3.390625 26.507812 3.390625 26.632812 C 7.890625 22.035156 12.359375 17.464844 16.84375 12.882812 C 17.175781 13.3125 17.480469 13.703125 17.789062 14.097656 C 17.105469 14.789062 16.425781 15.472656 15.769531 16.132812 C 19.207031 19.648438 22.601562 23.113281 26.007812 26.597656 C 26.007812 26.507812 26.007812 26.410156 26.007812 26.3125 C 26.007812 22.132812 26.011719 17.957031 26.003906 13.777344 C 26.003906 13.589844 26.050781 13.441406 26.167969 13.292969 C 26.78125 12.515625 27.308594 11.6875 27.6875 10.761719 C 28.789062 8.070312 27.910156 4.746094 25.625 2.996094 Z M 11.097656 14.195312 C 9.460938 14.945312 7.457031 14.328125 6.480469 12.789062 C 5.441406 11.148438 5.722656 9.09375 7.164062 7.777344 C 8.445312 6.605469 10.5625 6.539062 11.882812 7.648438 C 11.597656 8.027344 11.320312 8.394531 11.027344 8.785156 C 10.289062 8.261719 9.503906 8.152344 8.6875 8.503906 C 8.09375 8.757812 7.664062 9.210938 7.445312 9.828125 C 6.980469 11.144531 7.632812 12.527344 8.886719 12.933594 C 10.117188 13.332031 11.464844 12.644531 11.800781 11.410156 C 11.4375 11.410156 11.085938 11.410156 10.734375 11.410156 C 10.378906 11.410156 10.019531 11.410156 9.640625 11.410156 C 9.640625 10.925781 9.640625 10.453125 9.640625 9.964844 C 10.871094 9.964844 12.097656 9.964844 13.324219 9.964844 C 13.554688 11.652344 12.851562 13.394531 11.097656 14.195312 Z M 25.816406 11.074219 C 25.257812 11.945312 24.605469 12.757812 23.976562 13.582031 C 23.214844 14.578125 22.515625 15.613281 22.214844 16.863281 C 22.070312 17.453125 22.007812 18.0625 21.902344 18.699219 C 21.757812 18.699219 21.578125 18.699219 21.402344 18.699219 C 21.347656 18.242188 21.316406 17.792969 21.238281 17.355469 C 21.019531 16.167969 20.496094 15.125 19.789062 14.171875 C 19.152344 13.320312 18.484375 12.492188 17.859375 11.632812 C 17.296875 10.863281 16.914062 10.003906 16.757812 9.042969 C 16.351562 6.558594 17.910156 4.046875 20.289062 3.375 C 23.144531 2.566406 25.988281 4.355469 26.546875 7.320312 C 26.796875 8.664062 26.546875 9.941406 25.816406 11.074219 Z M 25.816406 11.074219 " fill-opacity="1" fill-rule="nonzero"/></g><g clip-path="url(#cbf06b6703)"><path fill="#000000" d="M 4.589844 27.742188 C 11.3125 27.742188 18.089844 27.742188 24.851562 27.742188 C 21.464844 24.28125 18.078125 20.816406 14.722656 17.386719 C 11.34375 20.839844 7.953125 24.304688 4.589844 27.742188 Z M 4.589844 27.742188 " fill-opacity="1" fill-rule="nonzero"/></g><path fill="#000000" d="M 21.660156 5.921875 C 20.601562 5.929688 19.726562 6.824219 19.726562 7.90625 C 19.726562 8.992188 20.59375 9.882812 21.65625 9.886719 C 22.71875 9.890625 23.589844 9.015625 23.609375 7.921875 C 23.628906 6.851562 22.714844 5.914062 21.660156 5.921875 Z M 21.660156 5.921875 " fill-opacity="1" fill-rule="nonzero"/></svg>