<svg xmlns="http://www.w3.org/2000/svg" xmlns:xlink="http://www.w3.org/1999/xlink" width="40" zoomAndPan="magnify" viewBox="0 0 30 30.000001" height="40" preserveAspectRatio="xMidYMid meet" version="1.0"><defs><clipPath id="f37e7eee34"><path d="M 2.445312 1.960938 L 27.847656 1.960938 L 27.847656 27.363281 L 2.445312 27.363281 Z M 2.445312 1.960938 " clip-rule="nonzero"/></clipPath></defs><path fill="#000000" d="M 18.460938 7.363281 L 11.839844 7.363281 C 9.644531 7.363281 7.859375 9.152344 7.859375 11.34375 L 7.859375 17.96875 C 7.859375 20.160156 9.644531 21.949219 11.839844 21.949219 L 18.460938 21.949219 C 20.65625 21.949219 22.441406 20.160156 22.441406 17.96875 L 22.441406 11.355469 C 22.441406 9.152344 20.65625 7.363281 18.460938 7.363281 Z M 21.191406 17.976562 C 21.191406 19.488281 19.972656 20.707031 18.460938 20.707031 L 11.839844 20.707031 C 10.328125 20.707031 9.097656 19.488281 9.097656 17.976562 L 9.097656 11.355469 C 9.097656 9.847656 10.328125 8.617188 11.839844 8.617188 L 18.460938 8.617188 C 19.972656 8.617188 21.191406 9.835938 21.191406 11.355469 Z M 21.191406 17.976562 " fill-opacity="1" fill-rule="nonzero"/><path fill="#000000" d="M 20.023438 10.671875 C 20.023438 11.164062 19.628906 11.570312 19.125 11.570312 C 18.632812 11.570312 18.226562 11.171875 18.226562 10.671875 C 18.226562 10.179688 18.621094 9.769531 19.125 9.769531 C 19.628906 9.78125 20.023438 10.179688 20.023438 10.671875 Z M 20.023438 10.671875 " fill-opacity="1" fill-rule="nonzero"/><path fill="#000000" d="M 15.144531 10.949219 C 13.101562 10.949219 11.433594 12.617188 11.433594 14.660156 C 11.433594 16.707031 13.101562 18.375 15.144531 18.375 C 17.1875 18.375 18.859375 16.707031 18.859375 14.660156 C 18.859375 12.617188 17.199219 10.949219 15.144531 10.949219 Z M 15.144531 17.121094 C 13.785156 17.121094 12.683594 16.019531 12.683594 14.660156 C 12.683594 13.300781 13.785156 12.199219 15.144531 12.199219 C 16.503906 12.199219 17.605469 13.300781 17.605469 14.660156 C 17.605469 16.019531 16.503906 17.121094 15.144531 17.121094 Z M 15.144531 17.121094 " fill-opacity="1" fill-rule="nonzero"/><g clip-path="url(#f37e7eee34)"><path fill="#000000" d="M 15.144531 27.363281 C 8.148438 27.363281 2.445312 21.671875 2.445312 14.660156 C 2.445312 7.664062 8.148438 1.960938 15.144531 1.960938 C 22.152344 1.960938 27.847656 7.664062 27.847656 14.660156 C 27.847656 21.671875 22.152344 27.363281 15.144531 27.363281 Z M 15.144531 2.65625 C 8.523438 2.65625 3.140625 8.039062 3.140625 14.660156 C 3.140625 21.285156 8.523438 26.667969 15.144531 26.667969 C 21.769531 26.667969 27.152344 21.285156 27.152344 14.660156 C 27.152344 8.039062 21.769531 2.65625 15.144531 2.65625 Z M 15.144531 2.65625 " fill-opacity="1" fill-rule="nonzero"/></g></svg>