<svg xmlns="http://www.w3.org/2000/svg" xmlns:xlink="http://www.w3.org/1999/xlink" width="40" zoomAndPan="magnify" viewBox="0 0 30 30.000001" height="40" preserveAspectRatio="xMidYMid meet" version="1.0"><path fill="#ffffff" d="M 19.449219 27.53125 C 18.320312 27.53125 17.253906 27.089844 16.457031 26.292969 C 14.921875 24.757812 14.816406 22.324219 16.136719 20.667969 L 8.769531 13.300781 C 8.027344 13.894531 7.105469 14.21875 6.136719 14.21875 C 5.007812 14.21875 3.945312 13.78125 3.144531 12.980469 C 2.347656 12.183594 1.90625 11.121094 1.90625 9.988281 C 1.90625 8.859375 2.347656 7.796875 3.144531 6.996094 C 3.96875 6.175781 5.078125 5.734375 6.242188 5.761719 C 6.210938 4.621094 6.640625 3.503906 7.480469 2.664062 C 8.28125 1.863281 9.34375 1.421875 10.472656 1.421875 C 11.601562 1.421875 12.664062 1.863281 13.464844 2.664062 C 14.261719 3.460938 14.703125 4.523438 14.703125 5.652344 C 14.703125 6.625 14.378906 7.542969 13.785156 8.289062 L 21.148438 15.652344 C 21.894531 15.058594 22.8125 14.734375 23.785156 14.734375 C 24.914062 14.734375 25.976562 15.175781 26.773438 15.972656 C 27.574219 16.773438 28.015625 17.835938 28.015625 18.964844 C 28.015625 20.09375 27.574219 21.15625 26.773438 21.957031 C 25.953125 22.78125 24.839844 23.21875 23.675781 23.191406 C 23.710938 24.332031 23.277344 25.453125 22.4375 26.292969 C 21.640625 27.089844 20.578125 27.53125 19.449219 27.53125 Z M 8.777344 11.335938 C 8.996094 11.335938 9.203125 11.421875 9.355469 11.578125 L 17.859375 20.082031 C 18.023438 20.246094 18.109375 20.46875 18.097656 20.699219 C 18.085938 20.929688 17.980469 21.144531 17.800781 21.292969 C 17.734375 21.34375 17.671875 21.402344 17.613281 21.460938 C 16.597656 22.476562 16.597656 24.125 17.609375 25.136719 C 18.101562 25.628906 18.753906 25.898438 19.449219 25.898438 C 20.140625 25.898438 20.792969 25.628906 21.285156 25.136719 C 21.992188 24.433594 22.226562 23.402344 21.902344 22.453125 C 21.800781 22.160156 21.875 21.832031 22.097656 21.613281 C 22.316406 21.394531 22.644531 21.316406 22.9375 21.417969 C 23.210938 21.511719 23.5 21.558594 23.789062 21.558594 C 24.480469 21.558594 25.132812 21.289062 25.621094 20.800781 C 26.113281 20.3125 26.382812 19.660156 26.382812 18.964844 C 26.382812 18.269531 26.113281 17.617188 25.621094 17.128906 C 25.128906 16.636719 24.476562 16.367188 23.785156 16.367188 C 23.089844 16.367188 22.4375 16.636719 21.945312 17.128906 C 21.882812 17.1875 21.828125 17.253906 21.773438 17.316406 C 21.628906 17.496094 21.414062 17.605469 21.183594 17.617188 C 20.953125 17.628906 20.730469 17.539062 20.566406 17.378906 L 12.058594 8.871094 C 11.894531 8.707031 11.808594 8.484375 11.820312 8.253906 C 11.832031 8.023438 11.941406 7.808594 12.117188 7.664062 C 12.183594 7.609375 12.25 7.550781 12.308594 7.488281 C 12.800781 7 13.070312 6.347656 13.070312 5.652344 C 13.070312 4.960938 12.800781 4.308594 12.308594 3.816406 C 11.820312 3.324219 11.167969 3.054688 10.472656 3.054688 C 9.777344 3.054688 9.125 3.324219 8.632812 3.816406 C 7.929688 4.523438 7.691406 5.550781 8.019531 6.5 C 8.117188 6.792969 8.042969 7.121094 7.824219 7.339844 C 7.601562 7.5625 7.277344 7.636719 6.980469 7.535156 C 6.707031 7.441406 6.421875 7.394531 6.132812 7.394531 C 5.4375 7.394531 4.789062 7.664062 4.296875 8.152344 C 3.808594 8.640625 3.539062 9.296875 3.539062 9.988281 C 3.539062 10.683594 3.808594 11.335938 4.300781 11.824219 C 4.789062 12.316406 5.441406 12.585938 6.136719 12.585938 C 6.832031 12.585938 7.484375 12.316406 7.972656 11.828125 C 8.035156 11.765625 8.09375 11.699219 8.148438 11.636719 C 8.292969 11.457031 8.507812 11.347656 8.738281 11.339844 C 8.75 11.335938 8.765625 11.335938 8.777344 11.335938 Z M 8.777344 11.335938 " fill-opacity="1" fill-rule="nonzero"/><path fill="#ffffff" d="M 10.539062 27.53125 C 11.671875 27.53125 12.734375 27.089844 13.53125 26.292969 C 15.066406 24.757812 15.175781 22.324219 13.851562 20.667969 L 21.21875 13.300781 C 21.964844 13.894531 22.882812 14.21875 23.851562 14.21875 C 24.980469 14.21875 26.042969 13.78125 26.84375 12.980469 C 27.644531 12.183594 28.082031 11.121094 28.082031 9.988281 C 28.082031 8.859375 27.644531 7.796875 26.84375 6.996094 C 26.019531 6.175781 24.910156 5.734375 23.746094 5.761719 C 23.78125 4.621094 23.347656 3.503906 22.507812 2.664062 C 21.710938 1.863281 20.644531 1.421875 19.515625 1.421875 C 18.386719 1.421875 17.324219 1.863281 16.523438 2.664062 C 15.726562 3.460938 15.285156 4.523438 15.285156 5.652344 C 15.285156 6.625 15.609375 7.542969 16.207031 8.289062 L 8.839844 15.652344 C 8.09375 15.058594 7.175781 14.734375 6.207031 14.734375 C 5.074219 14.734375 4.011719 15.175781 3.214844 15.972656 C 2.414062 16.773438 1.976562 17.835938 1.976562 18.964844 C 1.976562 20.09375 2.414062 21.15625 3.214844 21.957031 C 4.039062 22.78125 5.148438 23.21875 6.3125 23.191406 C 6.277344 24.332031 6.710938 25.453125 7.550781 26.292969 C 8.351562 27.089844 9.410156 27.53125 10.542969 27.53125 Z M 21.210938 11.335938 C 20.996094 11.335938 20.789062 11.421875 20.632812 11.578125 L 12.128906 20.082031 C 11.964844 20.246094 11.878906 20.46875 11.890625 20.699219 C 11.902344 20.929688 12.011719 21.144531 12.1875 21.292969 C 12.253906 21.34375 12.316406 21.402344 12.378906 21.460938 C 13.390625 22.476562 13.390625 24.125 12.378906 25.136719 C 11.886719 25.628906 11.234375 25.898438 10.539062 25.898438 C 9.847656 25.898438 9.195312 25.628906 8.703125 25.136719 C 8 24.433594 7.761719 23.402344 8.085938 22.453125 C 8.1875 22.160156 8.113281 21.832031 7.890625 21.613281 C 7.671875 21.394531 7.34375 21.316406 7.050781 21.417969 C 6.777344 21.511719 6.488281 21.558594 6.199219 21.558594 C 5.507812 21.558594 4.855469 21.289062 4.367188 20.800781 C 3.875 20.3125 3.605469 19.660156 3.605469 18.964844 C 3.605469 18.269531 3.875 17.617188 4.367188 17.128906 C 4.859375 16.636719 5.511719 16.367188 6.207031 16.367188 C 6.898438 16.367188 7.550781 16.636719 8.042969 17.128906 C 8.105469 17.1875 8.160156 17.253906 8.214844 17.316406 C 8.359375 17.496094 8.574219 17.605469 8.804688 17.617188 C 9.035156 17.628906 9.261719 17.539062 9.421875 17.378906 L 17.929688 8.871094 C 18.09375 8.707031 18.179688 8.484375 18.167969 8.253906 C 18.15625 8.023438 18.050781 7.808594 17.871094 7.664062 C 17.804688 7.609375 17.738281 7.550781 17.679688 7.488281 C 17.1875 7 16.917969 6.347656 16.917969 5.652344 C 16.917969 4.960938 17.1875 4.308594 17.679688 3.816406 C 18.171875 3.324219 18.824219 3.054688 19.515625 3.054688 C 20.210938 3.054688 20.863281 3.324219 21.355469 3.816406 C 22.058594 4.523438 22.296875 5.550781 21.972656 6.5 C 21.871094 6.792969 21.945312 7.121094 22.164062 7.339844 C 22.386719 7.5625 22.714844 7.636719 23.007812 7.535156 C 23.28125 7.441406 23.566406 7.394531 23.859375 7.394531 C 24.550781 7.394531 25.203125 7.664062 25.691406 8.152344 C 26.179688 8.640625 26.453125 9.296875 26.453125 9.988281 C 26.453125 10.683594 26.179688 11.335938 25.691406 11.824219 C 25.199219 12.316406 24.546875 12.585938 23.851562 12.585938 C 23.160156 12.585938 22.507812 12.316406 22.015625 11.828125 C 21.953125 11.765625 21.894531 11.699219 21.84375 11.636719 C 21.695312 11.457031 21.480469 11.347656 21.25 11.339844 C 21.238281 11.335938 21.226562 11.335938 21.210938 11.335938 Z M 21.210938 11.335938 " fill-opacity="1" fill-rule="nonzero"/></svg>